<svg width="1024" height="1024" viewBox="0 0 256 256" fill="none" xmlns="http://www.w3.org/2000/svg">
  <rect x="16" y="16" width="224" height="224" rx="48" fill="#0F172A" />
  <rect x="42" y="32" width="172" height="192" rx="28" stroke="#E7ECF8" stroke-width="12" />
  <rect x="60" y="50" width="18" height="156" rx="9" fill="#2F6AF6" />
  <path d="M128 76C116 94 96 120 96 146C96 167 110 182 128 182C146 182 160 167 160 146C160 120 140 94 128 76Z" stroke="#E7ECF8" stroke-width="10" fill="none" />
  <path d="M128 104C120 116 112 130 112 146C112 156 119 164 128 164C137 164 144 156 144 146C144 130 136 116 128 104Z" fill="#2F6AF6" />
</svg>
